<svg width="24" height="24" viewBox="0 0 24 24" fill="none" xmlns="http://www.w3.org/2000/svg">
<circle cx="12" cy="12" r="11.5" stroke="#899D9D"/>
<path d="M4.06856 14.568C4.70856 13.9813 5.23123 13.4907 5.63656 13.096C6.05256 12.6907 6.3779 12.344 6.61256 12.056C6.8579 11.768 7.02856 11.512 7.12456 11.288C7.22056 11.0533 7.26856 10.8187 7.26856 10.584C7.26856 10.2107 7.17256 9.87467 6.98056 9.576C6.78856 9.26667 6.49523 9.112 6.10056 9.112C5.6739 9.112 5.33256 9.30933 5.07656 9.704C4.83123 10.088 4.59656 10.6 4.37256 11.24C4.3619 11.2613 4.32456 11.2667 4.26056 11.256C4.19656 11.2453 4.1699 11.2293 4.18056 11.208L4.88456 8.472C4.89523 8.44 4.93256 8.43467 4.99656 8.456C5.06056 8.46667 5.0819 8.48267 5.06056 8.504C5.0179 8.70667 5.02323 8.83467 5.07656 8.888C5.14056 8.94133 5.2099 8.968 5.28456 8.968C5.4659 8.968 5.6899 8.90933 5.95656 8.792C6.22323 8.67467 6.58056 8.616 7.02856 8.616C7.6259 8.616 8.08456 8.76 8.40456 9.048C8.73523 9.32533 8.90056 9.688 8.90056 10.136C8.90056 10.52 8.7939 10.8773 8.58056 11.208C8.36723 11.5387 8.09523 11.848 7.76456 12.136C7.44456 12.4133 7.10856 12.6747 6.75656 12.92C6.41523 13.1653 6.1059 13.3947 5.82856 13.608C5.79656 13.64 5.79123 13.6667 5.81256 13.688C5.8339 13.7093 5.8659 13.72 5.90856 13.72C6.45256 13.72 6.92723 13.7147 7.33256 13.704C7.74856 13.6933 8.09523 13.6613 8.37256 13.608C8.6499 13.5547 8.86856 13.4747 9.02856 13.368C9.18856 13.2613 9.29523 13.112 9.34856 12.92C9.35923 12.8773 9.39123 12.8613 9.44456 12.872C9.50856 12.8827 9.54056 12.8987 9.54056 12.92L9.20456 14.824C9.20456 14.8667 9.18856 14.9093 9.15656 14.952C9.13523 14.984 9.10323 15 9.06056 15C8.3139 15 7.50323 15 6.62856 15C5.76456 15 4.94323 15 4.16456 15C4.11123 15 4.06856 14.9413 4.03656 14.824C4.00456 14.696 4.01523 14.6107 4.06856 14.568ZM11.5941 15.176C11.2954 15.176 11.0554 15.0907 10.8741 14.92C10.7034 14.7387 10.6181 14.4987 10.6181 14.2C10.6181 13.9227 10.7034 13.6987 10.8741 13.528C11.0554 13.3573 11.2954 13.272 11.5941 13.272C11.9034 13.272 12.1381 13.3573 12.2981 13.528C12.4581 13.6987 12.5381 13.9227 12.5381 14.2C12.5381 14.4987 12.4581 14.7387 12.2981 14.92C12.1381 15.0907 11.9034 15.176 11.5941 15.176ZM13.7706 14.872C13.7279 14.872 13.6852 14.8507 13.6426 14.808C13.6106 14.7653 13.6159 14.7227 13.6586 14.68L18.6186 8.664C18.6399 8.632 18.6826 8.62133 18.7466 8.632C18.8212 8.64267 18.8586 8.67467 18.8586 8.728V17.16C18.8586 17.2667 18.8159 17.3413 18.7306 17.384L17.4666 18.008C17.3706 18.0613 17.3226 18.0293 17.3226 17.912V10.552L18.5866 9.592L14.6506 14.216C14.6186 14.2587 14.6132 14.2907 14.6346 14.312C14.6559 14.3227 14.6879 14.328 14.7306 14.328C15.3066 14.328 15.8239 14.328 16.2826 14.328C16.7412 14.3173 17.1679 14.312 17.5626 14.312C17.9572 14.3013 18.3466 14.2907 18.7306 14.28C19.1146 14.2587 19.5199 14.2427 19.9466 14.232C19.9786 14.232 19.9946 14.296 19.9946 14.424C20.0052 14.5413 19.9999 14.664 19.9786 14.792C19.9679 14.92 19.9466 14.984 19.9146 14.984C19.5092 14.9627 19.0932 14.9467 18.6666 14.936C18.2506 14.9147 17.8026 14.904 17.3226 14.904C16.8426 14.8933 16.3092 14.888 15.7226 14.888C15.1466 14.8773 14.4959 14.872 13.7706 14.872Z" fill="#899D9D"/>
</svg>
